<?xml version="1.0" encoding="UTF-8"?>
<!DOCTYPE svg PUBLIC "-//W3C//DTD SVG 1.1//EN" "http://www.w3.org/Graphics/SVG/1.1/DTD/svg11.dtd">
<svg xmlns="http://www.w3.org/2000/svg" version="1.1" width="444px" height="69px" style="shape-rendering:geometricPrecision; text-rendering:geometricPrecision; image-rendering:optimizeQuality; fill-rule:evenodd; clip-rule:evenodd" xmlns:xlink="http://www.w3.org/1999/xlink">
<g><path style="opacity:0.158" fill="#000000" d="M 12.5,14.5 C 11.1667,14.5 9.83333,14.5 8.5,14.5C 9.40567,13.0351 10.739,12.0351 12.5,11.5C 13.5624,12.4246 13.5624,13.4246 12.5,14.5 Z"/></g>
<g><path style="opacity:0.004" fill="#000000" d="M 197.5,12.5 C 198.833,13.1667 198.833,13.1667 197.5,12.5 Z"/></g>
<g><path style="opacity:0.004" fill="#000000" d="M 218.5,14.5 C 217.833,13.1667 217.833,13.1667 218.5,14.5 Z"/></g>
<g><path style="opacity:0.091" fill="#010101" d="M 8.5,14.5 C 8.5,14.8333 8.5,15.1667 8.5,15.5C 7.53862,17.2646 7.20528,19.2646 7.5,21.5C 5.39433,23.2438 4.061,22.7438 3.5,20C 4.85239,17.7274 6.51906,15.8941 8.5,14.5 Z"/></g>
<g><path style="opacity:0.721" fill="#797979" d="M 8.5,15.5 C 8.5,15.1667 8.5,14.8333 8.5,14.5C 9.83333,14.5 11.1667,14.5 12.5,14.5C 18.8421,14.3338 25.1754,14.5005 31.5,15C 32.2524,15.6708 32.5858,16.5041 32.5,17.5C 31.7109,17.2172 31.0442,16.7172 30.5,16C 23.1742,15.5003 15.8409,15.3337 8.5,15.5 Z"/></g>
<g><path style="opacity:0.712" fill="#797979" d="M 84.5,15.5 C 101.659,14.5033 118.992,14.17 136.5,14.5C 136.5,18.1667 136.5,21.8333 136.5,25.5C 136.167,25.5 135.833,25.5 135.5,25.5C 135.5,22.1667 135.5,18.8333 135.5,15.5C 118.5,15.5 101.5,15.5 84.5,15.5 Z"/></g>
<g><path style="opacity:0.737" fill="#3c236b" d="M 161.5,16.5 C 158.25,15.8726 154.917,15.5393 151.5,15.5C 148.087,15.517 145.087,16.1836 142.5,17.5C 141.596,16.791 141.263,15.791 141.5,14.5C 148.584,13.8745 155.25,14.5411 161.5,16.5 Z"/></g>
<g><path style="opacity:0.731" fill="#6c3e21" d="M 195.5,14.5 C 202.913,13.8721 209.913,14.5388 216.5,16.5C 211.26,15.5509 205.927,15.2175 200.5,15.5C 200.567,16.9587 200.234,18.2921 199.5,19.5C 198.833,18.8333 198.167,18.1667 197.5,17.5C 196.599,16.7095 195.932,15.7095 195.5,14.5 Z"/></g>
<g><path style="opacity:0.71" fill="#462a18" d="M 289.5,23.5 C 289.798,20.7354 290.798,18.2354 292.5,16C 286.175,15.5005 279.842,15.3338 273.5,15.5C 275.634,13.9666 278.134,13.2999 281,13.5C 284.928,14.1304 288.761,14.2971 292.5,14C 293.144,17.5779 292.144,20.7445 289.5,23.5 Z"/></g>
<g><path style="opacity:0.705" fill="#747474" d="M 340.5,15.5 C 334.077,15.2088 327.744,15.5422 321.5,16.5C 324.258,15.1818 327.424,14.5152 331,14.5C 334.352,14.5018 337.518,14.8351 340.5,15.5 Z"/></g>
<g><path style="opacity:0.715" fill="#717171" d="M 391.5,15.5 C 384.646,15.176 377.979,15.5093 371.5,16.5C 371.167,16.5 370.833,16.5 370.5,16.5C 369.957,16.44 369.624,16.1067 369.5,15.5C 376.99,14.1806 384.323,14.1806 391.5,15.5 Z"/></g>
<g><path style="opacity:0.713" fill="#727272" d="M 415.5,15.5 C 422.677,14.1806 430.01,14.1806 437.5,15.5C 437.376,16.1067 437.043,16.44 436.5,16.5C 436.167,16.5 435.833,16.5 435.5,16.5C 429.021,15.5093 422.354,15.176 415.5,15.5 Z"/></g>
<g><path style="opacity:0.314" fill="#3c241b" d="M 251.5,16.5 C 247.215,15.23 242.881,15.23 238.5,16.5C 238.058,17.7387 237.391,18.7387 236.5,19.5C 236.629,17.7839 236.962,16.1172 237.5,14.5C 237.56,13.9569 237.893,13.6236 238.5,13.5C 243.239,13.7781 247.573,14.7781 251.5,16.5 Z"/></g>
<g><path style="opacity:1" fill="#fdfdfd" d="M 8.5,15.5 C 15.8409,15.3337 23.1742,15.5003 30.5,16C 31.0442,16.7172 31.7109,17.2172 32.5,17.5C 33.5,17.8333 34.1667,18.5 34.5,19.5C 34.7376,21.4044 35.7376,22.7377 37.5,23.5C 38.5,23.8333 39.1667,24.5 39.5,25.5C 40.0798,27.7488 41.4131,29.4154 43.5,30.5C 44.5,30.8333 45.1667,31.5 45.5,32.5C 45.7376,34.4044 46.7376,35.7377 48.5,36.5C 49.5,36.8333 50.1667,37.5 50.5,38.5C 50.7376,40.4044 51.7376,41.7377 53.5,42.5C 53.8212,44.0481 54.8212,44.7148 56.5,44.5C 56.5,34.8333 56.5,25.1667 56.5,15.5C 62.5,15.5 68.5,15.5 74.5,15.5C 74.5,30.1667 74.5,44.8333 74.5,59.5C 66.445,59.7701 58.445,59.4368 50.5,58.5C 50.2624,56.5956 49.2624,55.2623 47.5,54.5C 46.5,54.1667 45.8333,53.5 45.5,52.5C 44.5265,49.865 42.8598,47.865 40.5,46.5C 39.5265,43.865 37.8598,41.865 35.5,40.5C 34.5265,37.865 32.8598,35.865 30.5,34.5C 29.9688,32.4559 28.8022,30.7893 27,29.5C 26.5002,39.4944 26.3335,49.4944 26.5,59.5C 20.5,59.5 14.5,59.5 8.5,59.5C 8.5,44.8333 8.5,30.1667 8.5,15.5 Z"/></g>
<g><path style="opacity:0.859" fill="#a3a3a3" d="M 74.5,15.5 C 68.5,15.5 62.5,15.5 56.5,15.5C 56.5,25.1667 56.5,34.8333 56.5,44.5C 54.8212,44.7148 53.8212,44.0481 53.5,42.5C 54.1174,42.6107 54.6174,42.944 55,43.5C 55.4998,33.8391 55.6665,24.1724 55.5,14.5C 62.0221,14.1765 68.3554,14.5098 74.5,15.5 Z"/></g>
<g><path style="opacity:1" fill="#f4f4f4" d="M 84.5,15.5 C 101.5,15.5 118.5,15.5 135.5,15.5C 135.5,18.8333 135.5,22.1667 135.5,25.5C 124.448,24.8572 113.781,25.5238 103.5,27.5C 103.5,29.1667 103.5,30.8333 103.5,32.5C 112.318,33.4933 121.318,33.8266 130.5,33.5C 130.5,36.1667 130.5,38.8333 130.5,41.5C 121.318,41.1734 112.318,41.5067 103.5,42.5C 103.5,44.1667 103.5,45.8333 103.5,47.5C 114.785,49.4784 126.452,50.1451 138.5,49.5C 138.5,53.1667 138.5,56.8333 138.5,60.5C 120.5,60.5 102.5,60.5 84.5,60.5C 84.5,45.5 84.5,30.5 84.5,15.5 Z"/></g>
<g><path style="opacity:1" fill="#824ceb" d="M 195.5,14.5 C 195.932,15.7095 196.599,16.7095 197.5,17.5C 199.039,23.5663 201.372,29.233 204.5,34.5C 204.5,34.8333 204.5,35.1667 204.5,35.5C 204.5,36.1667 204.833,36.5 205.5,36.5C 205.5,36.8333 205.5,37.1667 205.5,37.5C 205.66,39.153 206.326,40.4863 207.5,41.5C 208.167,41.5 208.5,41.1667 208.5,40.5C 211.403,45.9768 214.07,51.6435 216.5,57.5C 211.604,59.4461 206.271,60.1128 200.5,59.5C 197.066,52.8759 194.4,45.8759 192.5,38.5C 192.598,36.4471 191.931,34.7804 190.5,33.5C 190.649,32.448 190.483,31.448 190,30.5C 188.589,32.6504 187.755,34.9837 187.5,37.5C 185.204,44.7315 182.538,51.7315 179.5,58.5C 173.925,59.4524 168.259,59.7857 162.5,59.5C 160.992,57.8185 159.992,55.8185 159.5,53.5C 159.598,51.4471 158.931,49.7804 157.5,48.5C 153.659,42.151 150.325,35.4843 147.5,28.5C 147.598,26.4471 146.931,24.7804 145.5,23.5C 143.992,21.8185 142.992,19.8185 142.5,17.5C 145.087,16.1836 148.087,15.517 151.5,15.5C 154.917,15.5393 158.25,15.8726 161.5,16.5C 164.561,23.3509 167.228,30.3509 169.5,37.5C 169.66,39.153 170.326,40.4863 171.5,41.5C 175.558,33.0409 179.391,24.3742 183,15.5C 187.066,14.5363 191.233,14.203 195.5,14.5 Z"/></g>
<g><path style="opacity:1" fill="#f08849" d="M 216.5,16.5 C 216.328,17.4916 216.662,18.1583 217.5,18.5C 219.892,25.6148 222.558,32.6148 225.5,39.5C 226.032,42.4596 226.699,42.7929 227.5,40.5C 230.931,34.5571 233.597,28.2238 235.5,21.5C 235.328,20.5084 235.662,19.8417 236.5,19.5C 237.391,18.7387 238.058,17.7387 238.5,16.5C 242.881,15.23 247.215,15.23 251.5,16.5C 255.284,24.7428 259.118,33.0762 263,41.5C 266.277,32.6313 269.777,23.9647 273.5,15.5C 279.842,15.3338 286.175,15.5005 292.5,16C 290.798,18.2354 289.798,20.7354 289.5,23.5C 287.008,29.8177 284.008,35.8177 280.5,41.5C 278.375,44.0878 277.042,47.0878 276.5,50.5C 275.674,53.4848 274.341,56.1515 272.5,58.5C 266.925,59.4524 261.259,59.7857 255.5,59.5C 252.066,52.8759 249.4,45.8759 247.5,38.5C 247.598,36.4471 246.931,34.7804 245.5,33.5C 245.649,32.448 245.483,31.448 245,30.5C 244.209,31.745 243.709,33.0783 243.5,34.5C 241.02,42.7758 238.02,50.7758 234.5,58.5C 228.291,60.1342 222.291,59.8008 216.5,57.5C 214.07,51.6435 211.403,45.9768 208.5,40.5C 208.34,38.847 207.674,37.5137 206.5,36.5C 206.167,36.5 205.833,36.5 205.5,36.5C 204.833,36.5 204.5,36.1667 204.5,35.5C 205.167,35.5 205.5,35.1667 205.5,34.5C 203.777,29.3873 201.777,24.3873 199.5,19.5C 200.234,18.2921 200.567,16.9587 200.5,15.5C 205.927,15.2175 211.26,15.5509 216.5,16.5 Z"/></g>
<g><path style="opacity:1" fill="#844dee" d="M 218.5,14.5 C 224.833,14.5 231.167,14.5 237.5,14.5C 236.962,16.1172 236.629,17.7839 236.5,19.5C 235.662,19.8417 235.328,20.5084 235.5,21.5C 231.992,27.1823 228.992,33.1823 226.5,39.5C 226.167,39.5 225.833,39.5 225.5,39.5C 222.558,32.6148 219.892,25.6148 217.5,18.5C 218.11,17.609 218.443,16.609 218.5,15.5C 218.5,15.1667 218.5,14.8333 218.5,14.5 Z"/></g>
<g><path style="opacity:1" fill="#f4f4f4" d="M 340.5,15.5 C 341.906,15.9731 342.573,16.9731 342.5,18.5C 342.427,20.0269 343.094,21.0269 344.5,21.5C 344.427,23.0269 345.094,24.0269 346.5,24.5C 347.89,25.8993 348.89,27.5659 349.5,29.5C 349.427,31.0269 350.094,32.0269 351.5,32.5C 351.427,34.0269 352.094,35.0269 353.5,35.5C 354.89,36.8993 355.89,38.5659 356.5,40.5C 356.427,42.0269 357.094,43.0269 358.5,43.5C 358.427,45.0269 359.094,46.0269 360.5,46.5C 362.664,48.822 364.331,51.4887 365.5,54.5C 365.427,56.0269 366.094,57.0269 367.5,57.5C 364.913,58.8164 361.913,59.483 358.5,59.5C 355.083,59.4607 351.75,59.1274 348.5,58.5C 347.326,57.4863 346.66,56.153 346.5,54.5C 341.881,53.1725 336.881,52.5058 331.5,52.5C 326.119,52.5058 321.119,53.1725 316.5,54.5C 315.094,54.9731 314.427,55.9731 314.5,57.5C 314.672,58.4916 314.338,59.1583 313.5,59.5C 306.978,59.8235 300.645,59.4902 294.5,58.5C 294.932,57.2905 295.599,56.2905 296.5,55.5C 297.906,55.0269 298.573,54.0269 298.5,52.5C 299.906,52.0269 300.573,51.0269 300.5,49.5C 301.11,47.5659 302.11,45.8993 303.5,44.5C 304.906,44.0269 305.573,43.0269 305.5,41.5C 306.906,41.0269 307.573,40.0269 307.5,38.5C 308.669,35.4887 310.336,32.822 312.5,30.5C 313.906,30.0269 314.573,29.0269 314.5,27.5C 315.906,27.0269 316.573,26.0269 316.5,24.5C 317.11,22.5659 318.11,20.8993 319.5,19.5C 320.906,19.0269 321.573,18.0269 321.5,16.5C 327.744,15.5422 334.077,15.2088 340.5,15.5 Z M 332.5,30.5 C 332.427,32.0269 333.094,33.0269 334.5,33.5C 334.66,35.153 335.326,36.4863 336.5,37.5C 336.414,38.4959 336.748,39.3292 337.5,40C 335.5,40.1667 333.5,40.3333 331.5,40.5C 329.048,40.4609 327.048,39.7943 325.5,38.5C 326.338,38.1583 326.672,37.4916 326.5,36.5C 327.906,36.0269 328.573,35.0269 328.5,33.5C 329.338,33.1583 329.672,32.4916 329.5,31.5C 330.391,30.8902 331.391,30.5569 332.5,30.5 Z"/></g>
<g><path style="opacity:1" fill="#fafafa" d="M 371.5,16.5 C 377.979,15.5093 384.646,15.176 391.5,15.5C 394.5,17.8333 397.167,20.5 399.5,23.5C 400.238,26.6263 401.905,27.9597 404.5,27.5C 408.898,24.1053 412.564,20.1053 415.5,15.5C 422.354,15.176 429.021,15.5093 435.5,16.5C 428.5,22.8333 421.833,29.5 415.5,36.5C 415.167,37.5 414.5,38.1667 413.5,38.5C 412.509,45.3134 412.175,52.3134 412.5,59.5C 406.5,59.5 400.5,59.5 394.5,59.5C 394.666,52.1591 394.5,44.8258 394,37.5C 392.223,35.2101 390.056,33.5434 387.5,32.5C 386.5,32.1667 385.833,31.5 385.5,30.5C 381.167,25.5 376.5,20.8333 371.5,16.5 Z"/></g>
<g><path style="opacity:0.255" fill="#0d070b" d="M 218.5,15.5 C 218.443,16.609 218.11,17.609 217.5,18.5C 216.662,18.1583 216.328,17.4916 216.5,16.5C 217.167,16.1667 217.833,15.8333 218.5,15.5 Z"/></g>
<g><path style="opacity:0.529" fill="#454545" d="M 321.5,16.5 C 321.573,18.0269 320.906,19.0269 319.5,19.5C 319.427,17.9731 320.094,16.9731 321.5,16.5 Z"/></g>
<g><path style="opacity:0.867" fill="#616161" d="M 34.5,19.5 C 36.2624,20.2623 37.2624,21.5956 37.5,23.5C 35.7376,22.7377 34.7376,21.4044 34.5,19.5 Z"/></g>
<g><path style="opacity:0.592" fill="#525252" d="M 342.5,18.5 C 343.906,18.9731 344.573,19.9731 344.5,21.5C 343.094,21.0269 342.427,20.0269 342.5,18.5 Z"/></g>
<g><path style="opacity:0.325" fill="#141414" d="M 370.5,16.5 C 370.833,16.5 371.167,16.5 371.5,16.5C 376.5,20.8333 381.167,25.5 385.5,30.5C 379.892,26.561 374.892,21.8943 370.5,16.5 Z"/></g>
<g><path style="opacity:0.51" fill="#424242" d="M 344.5,21.5 C 345.906,21.9731 346.573,22.9731 346.5,24.5C 345.094,24.0269 344.427,23.0269 344.5,21.5 Z"/></g>
<g><path style="opacity:0.076" fill="#191025" d="M 145.5,23.5 C 146.931,24.7804 147.598,26.4471 147.5,28.5C 146.069,27.2196 145.402,25.5529 145.5,23.5 Z"/></g>
<g><path style="opacity:0.792" fill="#575757" d="M 399.5,23.5 C 401.167,24.8333 402.833,26.1667 404.5,27.5C 401.905,27.9597 400.238,26.6263 399.5,23.5 Z"/></g>
<g><path style="opacity:0.71" fill="#575757" d="M 415.5,15.5 C 412.564,20.1053 408.898,24.1053 404.5,27.5C 407.436,22.8947 411.102,18.8947 415.5,15.5 Z"/></g>
<g><path style="opacity:0.878" fill="#5c5c5c" d="M 39.5,25.5 C 41.5869,26.5846 42.9202,28.2512 43.5,30.5C 41.4131,29.4154 40.0798,27.7488 39.5,25.5 Z"/></g>
<g><path style="opacity:0.048" fill="#131313" d="M 135.5,25.5 C 135.833,25.5 136.167,25.5 136.5,25.5C 125.884,27.477 114.884,28.1436 103.5,27.5C 113.781,25.5238 124.448,24.8572 135.5,25.5 Z"/></g>
<g><path style="opacity:0.639" fill="#5c5c5c" d="M 316.5,24.5 C 316.573,26.0269 315.906,27.0269 314.5,27.5C 314.427,25.9731 315.094,24.9731 316.5,24.5 Z"/></g>
<g><path style="opacity:0.073" fill="#170e11" d="M 197.5,17.5 C 198.167,18.1667 198.833,18.8333 199.5,19.5C 201.777,24.3873 203.777,29.3873 205.5,34.5C 205.167,34.5 204.833,34.5 204.5,34.5C 201.372,29.233 199.039,23.5663 197.5,17.5 Z"/></g>
<g><path style="opacity:0.573" fill="#4e4e4e" d="M 314.5,27.5 C 314.573,29.0269 313.906,30.0269 312.5,30.5C 312.427,28.9731 313.094,27.9731 314.5,27.5 Z"/></g>
<g><path style="opacity:0.027" fill="#171717" d="M 332.5,30.5 C 331.391,30.5569 330.391,30.8902 329.5,31.5C 330.14,28.3178 331.14,27.9845 332.5,30.5 Z"/></g>
<g><path style="opacity:0.349" fill="#2c2c2c" d="M 8.5,15.5 C 8.5,30.1667 8.5,44.8333 8.5,59.5C 14.5,59.5 20.5,59.5 26.5,59.5C 26.3335,49.4944 26.5002,39.4944 27,29.5C 28.8022,30.7893 29.9688,32.4559 30.5,34.5C 29.5416,34.0472 28.7083,33.3805 28,32.5C 27.5002,41.8274 27.3335,51.1607 27.5,60.5C 20.8333,60.5 14.1667,60.5 7.5,60.5C 7.5,47.5 7.5,34.5 7.5,21.5C 7.20528,19.2646 7.53862,17.2646 8.5,15.5 Z"/></g>
<g><path style="opacity:0.02" fill="#1a1a1a" d="M 332.5,30.5 C 333.906,30.9731 334.573,31.9731 334.5,33.5C 333.094,33.0269 332.427,32.0269 332.5,30.5 Z"/></g>
<g><path style="opacity:0.631" fill="#595959" d="M 349.5,29.5 C 350.906,29.9731 351.573,30.9731 351.5,32.5C 350.094,32.0269 349.427,31.0269 349.5,29.5 Z"/></g>
<g><path style="opacity:0.024" fill="#101010" d="M 435.5,16.5 C 435.833,16.5 436.167,16.5 436.5,16.5C 430.111,23.8906 423.111,30.5573 415.5,36.5C 421.833,29.5 428.5,22.8333 435.5,16.5 Z"/></g>
<g><path style="opacity:0.648" fill="#434343" d="M 103.5,32.5 C 112.833,32.5 122.167,32.5 131.5,32.5C 131.5,35.8333 131.5,39.1667 131.5,42.5C 122.167,42.5 112.833,42.5 103.5,42.5C 112.318,41.5067 121.318,41.1734 130.5,41.5C 130.5,38.8333 130.5,36.1667 130.5,33.5C 121.318,33.8266 112.318,33.4933 103.5,32.5 Z"/></g>
<g><path style="opacity:0.824" fill="#555555" d="M 45.5,32.5 C 47.2624,33.2623 48.2624,34.5956 48.5,36.5C 46.7376,35.7377 45.7376,34.4044 45.5,32.5 Z"/></g>
<g><path style="opacity:0.033" fill="#100817" d="M 190.5,33.5 C 189.5,34.8333 188.5,36.1667 187.5,37.5C 187.755,34.9837 188.589,32.6504 190,30.5C 190.483,31.448 190.649,32.448 190.5,33.5 Z"/></g>
<g><path style="opacity:0.055" fill="#190f08" d="M 245.5,33.5 C 244.833,33.8333 244.167,34.1667 243.5,34.5C 243.709,33.0783 244.209,31.745 245,30.5C 245.483,31.448 245.649,32.448 245.5,33.5 Z"/></g>
<g><path style="opacity:0.055" fill="#150c1e" d="M 190.5,33.5 C 191.931,34.7804 192.598,36.4471 192.5,38.5C 191.069,37.2196 190.402,35.5529 190.5,33.5 Z"/></g>
<g><path style="opacity:0.076" fill="#13090f" d="M 235.5,21.5 C 233.597,28.2238 230.931,34.5571 227.5,40.5C 227.5,39.8333 227.167,39.5 226.5,39.5C 228.992,33.1823 231.992,27.1823 235.5,21.5 Z"/></g>
<g><path style="opacity:0.031" fill="#1e1e1e" d="M 328.5,33.5 C 328.573,35.0269 327.906,36.0269 326.5,36.5C 326.427,34.9731 327.094,33.9731 328.5,33.5 Z"/></g>
<g><path style="opacity:0.545" fill="#4b4b4b" d="M 351.5,32.5 C 352.906,32.9731 353.573,33.9731 353.5,35.5C 352.094,35.0269 351.427,34.0269 351.5,32.5 Z"/></g>
<g><path style="opacity:0.012" fill="#272727" d="M 30.5,34.5 C 32.8598,35.865 34.5265,37.865 35.5,40.5C 33.1097,39.1092 31.4431,37.1092 30.5,34.5 Z"/></g>
<g><path style="opacity:0.29" fill="#22150d" d="M 245.5,33.5 C 246.931,34.7804 247.598,36.4471 247.5,38.5C 246.069,37.2196 245.402,35.5529 245.5,33.5 Z"/></g>
<g><path style="opacity:0.047" fill="#12090e" d="M 206.5,36.5 C 207.674,37.5137 208.34,38.847 208.5,40.5C 207.833,40.5 207.5,40.8333 207.5,41.5C 206.326,40.4863 205.66,39.153 205.5,37.5C 206.167,37.5 206.5,37.1667 206.5,36.5 Z"/></g>
<g><path style="opacity:0.037" fill="#140b1d" d="M 169.5,37.5 C 171.104,38.287 171.771,39.6203 171.5,41.5C 170.326,40.4863 169.66,39.153 169.5,37.5 Z"/></g>
<g><path style="opacity:0.839" fill="#5c5c5c" d="M 50.5,38.5 C 52.2624,39.2623 53.2624,40.5956 53.5,42.5C 51.7376,41.7377 50.7376,40.4044 50.5,38.5 Z"/></g>
<g><path style="opacity:0.343" fill="#2e2e2e" d="M 387.5,32.5 C 390.056,33.5434 392.223,35.2101 394,37.5C 394.5,44.8258 394.666,52.1591 394.5,59.5C 400.5,59.5 406.5,59.5 412.5,59.5C 412.175,52.3134 412.509,45.3134 413.5,38.5C 413.5,45.8333 413.5,53.1667 413.5,60.5C 406.833,60.5 400.167,60.5 393.5,60.5C 393.666,53.1591 393.5,45.8258 393,38.5C 390.96,36.6298 389.127,34.6298 387.5,32.5 Z"/></g>
<g><path style="opacity:0.608" fill="#555555" d="M 307.5,38.5 C 307.573,40.0269 306.906,41.0269 305.5,41.5C 305.427,39.9731 306.094,38.9731 307.5,38.5 Z"/></g>
<g><path style="opacity:0.4" fill="#252525" d="M 336.5,37.5 C 338.104,38.287 338.771,39.6203 338.5,41.5C 333.833,41.5 329.167,41.5 324.5,41.5C 324.263,40.209 324.596,39.209 325.5,38.5C 327.048,39.7943 329.048,40.4609 331.5,40.5C 333.5,40.3333 335.5,40.1667 337.5,40C 336.748,39.3292 336.414,38.4959 336.5,37.5 Z"/></g>
<g><path style="opacity:0.404" fill="#1c1111" d="M 225.5,39.5 C 225.833,39.5 226.167,39.5 226.5,39.5C 227.167,39.5 227.5,39.8333 227.5,40.5C 226.699,42.7929 226.032,42.4596 225.5,39.5 Z"/></g>
<g><path style="opacity:0.004" fill="#252525" d="M 35.5,40.5 C 37.8598,41.865 39.5265,43.865 40.5,46.5C 38.1097,45.1092 36.4431,43.1092 35.5,40.5 Z"/></g>
<g><path style="opacity:0.651" fill="#606060" d="M 356.5,40.5 C 357.906,40.9731 358.573,41.9731 358.5,43.5C 357.094,43.0269 356.427,42.0269 356.5,40.5 Z"/></g>
<g><path style="opacity:0.553" fill="#4a4a4a" d="M 305.5,41.5 C 305.573,43.0269 304.906,44.0269 303.5,44.5C 303.427,42.9731 304.094,41.9731 305.5,41.5 Z"/></g>
<g><path style="opacity:0.58" fill="#525252" d="M 358.5,43.5 C 359.906,43.9731 360.573,44.9731 360.5,46.5C 359.094,46.0269 358.427,45.0269 358.5,43.5 Z"/></g>
<g><path style="opacity:0.173" fill="#1f140c" d="M 280.5,41.5 C 279.958,44.9122 278.625,47.9122 276.5,50.5C 277.042,47.0878 278.375,44.0878 280.5,41.5 Z"/></g>
<g><path style="opacity:0.012" fill="#252525" d="M 40.5,46.5 C 42.8598,47.865 44.5265,49.865 45.5,52.5C 43.1097,51.1092 41.4431,49.1092 40.5,46.5 Z"/></g>
<g><path style="opacity:0.829" fill="#727272" d="M 103.5,47.5 C 115.548,46.8549 127.215,47.5216 138.5,49.5C 126.452,50.1451 114.785,49.4784 103.5,47.5 Z"/></g>
<g><path style="opacity:0.069" fill="#180f23" d="M 157.5,48.5 C 158.931,49.7804 159.598,51.4471 159.5,53.5C 158.069,52.2196 157.402,50.5529 157.5,48.5 Z"/></g>
<g><path style="opacity:0.655" fill="#5f5f5f" d="M 300.5,49.5 C 300.573,51.0269 299.906,52.0269 298.5,52.5C 298.427,50.9731 299.094,49.9731 300.5,49.5 Z"/></g>
<g><path style="opacity:0.127" fill="#0a0a0a" d="M 346.5,54.5 C 336.5,53.1667 326.5,53.1667 316.5,54.5C 321.119,53.1725 326.119,52.5058 331.5,52.5C 336.881,52.5058 341.881,53.1725 346.5,54.5 Z"/></g>
<g><path style="opacity:0.576" fill="#4e4e4e" d="M 298.5,52.5 C 298.573,54.0269 297.906,55.0269 296.5,55.5C 296.427,53.9731 297.094,52.9731 298.5,52.5 Z"/></g>
<g><path style="opacity:0.027" fill="#1a1a1a" d="M 47.5,54.5 C 49.2624,55.2623 50.2624,56.5956 50.5,58.5C 48.7376,57.7377 47.7376,56.4044 47.5,54.5 Z"/></g>
<g><path style="opacity:0.02" fill="#1c1c1c" d="M 316.5,54.5 C 316.573,56.0269 315.906,57.0269 314.5,57.5C 314.427,55.9731 315.094,54.9731 316.5,54.5 Z"/></g>
<g><path style="opacity:0.624" fill="#5a5a5a" d="M 365.5,54.5 C 366.906,54.9731 367.573,55.9731 367.5,57.5C 366.094,57.0269 365.427,56.0269 365.5,54.5 Z"/></g>
<g><path style="opacity:0.184" fill="#121212" d="M 50.5,58.5 C 58.445,59.4368 66.445,59.7701 74.5,59.5C 67.0113,60.6557 59.3446,60.8223 51.5,60C 50.944,59.6174 50.6107,59.1174 50.5,58.5 Z"/></g>
<g><path style="opacity:0.182" fill="#06030a" d="M 179.5,58.5 C 177.085,59.8142 174.252,60.4809 171,60.5C 167.979,60.4978 165.146,60.1644 162.5,59.5C 168.259,59.7857 173.925,59.4524 179.5,58.5 Z"/></g>
<g><path style="opacity:0.185" fill="#0b0606" d="M 216.5,57.5 C 222.291,59.8008 228.291,60.1342 234.5,58.5C 229.208,59.8288 223.542,60.4955 217.5,60.5C 211.657,60.4995 205.99,60.1661 200.5,59.5C 206.271,60.1128 211.604,59.4461 216.5,57.5 Z"/></g>
<g><path style="opacity:0.189" fill="#080402" d="M 272.5,58.5 C 268.076,60.244 263.243,61.244 258,61.5C 256.699,61.3613 255.866,60.6946 255.5,59.5C 261.259,59.7857 266.925,59.4524 272.5,58.5 Z"/></g>
<g><path style="opacity:0.184" fill="#080808" d="M 294.5,58.5 C 300.645,59.4902 306.978,59.8235 313.5,59.5C 306.989,60.8181 300.322,60.8181 293.5,59.5C 293.624,58.8933 293.957,58.56 294.5,58.5 Z"/></g>
<g><path style="opacity:0.182" fill="#131313" d="M 367.5,57.5 C 368.404,58.209 368.737,59.209 368.5,60.5C 361.416,61.1255 354.75,60.4589 348.5,58.5C 351.75,59.1274 355.083,59.4607 358.5,59.5C 361.913,59.483 364.913,58.8164 367.5,57.5 Z"/></g>
</svg>
