<svg width="123" height="47" viewBox="0 0 123 47" fill="none" xmlns="http://www.w3.org/2000/svg">
<path d="M14.2902 47L0.744697 0.454544H13.1765L20.1992 30.9545H20.5856L28.6083 0.454544H38.7447L46.7674 31.0227H47.1538L54.1992 0.454544H66.6083L53.0856 47H42.2447L33.8583 18.7727H33.4947L25.1083 47H14.2902Z" fill="white"/>
<path d="M14.2902 47L0.744697 0.454544H13.1765L20.1992 30.9545H20.5856L28.6083 0.454544H38.7447L46.7674 31.0227H47.1538L54.1992 0.454544H66.6083L53.0856 47H42.2447L33.8583 18.7727H33.4947L25.1083 47H14.2902Z" fill="#7F00FF"/>
<path d="M70.5652 47L57.0197 0.454544H69.4515L76.4742 30.9545H76.8606L84.8833 0.454544H95.0197L103.042 31.0227H103.429L110.474 0.454544H122.883L109.361 47H98.5197L90.1333 18.7727H89.7697L81.3833 47H70.5652Z" fill="white"/>
<path d="M70.5652 47L57.0197 0.454544H69.4515L76.4742 30.9545H76.8606L84.8833 0.454544H95.0197L103.042 31.0227H103.429L110.474 0.454544H122.883L109.361 47H98.5197L90.1333 18.7727H89.7697L81.3833 47H70.5652Z" fill="#FFA800"/>
</svg>
